<svg width="21" height="5" viewBox="0 0 21 5" fill="none" xmlns="http://www.w3.org/2000/svg">
<path d="M2.26758 0C3.52002 0 4.5359 1.01519 4.53613 2.26758C4.53613 3.52016 3.52016 4.53613 2.26758 4.53613C1.01519 4.5359 0 3.52002 0 2.26758C0.000227881 1.01533 1.01533 0.000227881 2.26758 0ZM10.2051 0C11.4575 0 12.4734 1.01519 12.4736 2.26758C12.4736 3.52016 11.4577 4.53613 10.2051 4.53613C8.95269 4.5359 7.9375 3.52002 7.9375 2.26758C7.93773 1.01533 8.95283 0.000227881 10.2051 0ZM18.1465 0C19.3989 0 20.4148 1.01519 20.415 2.26758C20.415 3.52016 19.3991 4.53613 18.1465 4.53613C16.8941 4.5359 15.8789 3.52002 15.8789 2.26758C15.8791 1.01533 16.8942 0.000227881 18.1465 0Z" fill="#E2DBD6"/>
</svg>
