<svg width="24" height="24" viewBox="0 0 24 24" fill="none" xmlns="http://www.w3.org/2000/svg">
<path d="M11.9072 0C18.4832 0.000122764 23.8145 5.33124 23.8145 11.9072C23.8143 18.4831 18.4831 23.8143 11.9072 23.8145C5.33124 23.8145 0.000122761 18.4832 0 11.9072C0 5.33117 5.33117 0 11.9072 0ZM11.9072 2.04102C6.45849 2.04102 2.04102 6.45849 2.04102 11.9072C2.04114 17.3559 6.45857 21.7725 11.9072 21.7725C17.3558 21.7723 21.7723 17.3558 21.7725 11.9072C21.7725 6.45857 17.3559 2.04114 11.9072 2.04102ZM11.9521 13.7197C12.5237 13.7197 13.2426 13.7746 13.8066 13.8271C14.0912 13.8537 14.3416 13.8805 14.5205 13.9004C14.6099 13.9103 14.6818 13.918 14.7314 13.9238C14.7563 13.9268 14.7759 13.9291 14.7891 13.9307C14.7954 13.9314 14.8003 13.9322 14.8037 13.9326C14.8052 13.9328 14.8067 13.9335 14.8076 13.9336H14.8096L14.9248 13.96C15.0367 13.9984 15.1349 14.0716 15.2041 14.1699C15.2962 14.3008 15.329 14.465 15.2939 14.6211L14.7402 14.4961C15.2425 14.609 15.2888 14.6198 15.293 14.6211V14.624C15.2928 14.6249 15.2922 14.6259 15.292 14.627C15.2914 14.6296 15.2909 14.6332 15.29 14.6367C15.2883 14.6439 15.2861 14.6534 15.2832 14.6641C15.2775 14.6853 15.2694 14.7135 15.2588 14.7471C15.2374 14.8143 15.2042 14.9052 15.1572 15.0117C15.0636 15.2242 14.9092 15.5051 14.6641 15.7861C14.1594 16.3645 13.308 16.8975 11.9521 16.8975C10.5976 16.8974 9.72882 16.3658 9.2041 15.7979C8.948 15.5206 8.78119 15.2434 8.67773 15.0332C8.62585 14.9278 8.58898 14.838 8.56445 14.7715C8.55217 14.7382 8.54282 14.7104 8.53613 14.6895C8.5328 14.679 8.53041 14.6701 8.52832 14.6631C8.52732 14.6597 8.52612 14.6568 8.52539 14.6543C8.52502 14.653 8.52472 14.6515 8.52441 14.6504V14.6484C8.5272 14.6473 8.56495 14.6357 9.07031 14.4961L8.52344 14.6475C8.47945 14.4883 8.50762 14.3178 8.59961 14.1807C8.69167 14.0435 8.83893 13.9532 9.00293 13.9336H9.00488C9.00583 13.9335 9.00709 13.9328 9.00879 13.9326C9.01237 13.9322 9.01763 13.9315 9.02441 13.9307C9.03801 13.9291 9.05838 13.9267 9.08398 13.9238C9.13509 13.918 9.20893 13.9103 9.30078 13.9004C9.48524 13.8805 9.74344 13.8537 10.0371 13.8271C10.6195 13.7746 11.3608 13.7198 11.9521 13.7197ZM7.93555 6.80371C8.8748 6.80383 9.63655 7.81898 9.63672 9.07129C9.63672 10.3238 8.8749 11.3397 7.93555 11.3398C6.99611 11.3398 6.23438 10.3239 6.23438 9.07129C6.23455 7.8189 6.99622 6.80371 7.93555 6.80371ZM15.3066 6.80371C16.2459 6.80383 17.0076 7.81898 17.0078 9.07129C17.0078 10.3238 16.246 11.3397 15.3066 11.3398C14.3672 11.3398 13.6055 10.3239 13.6055 9.07129C13.6056 7.8189 14.3673 6.80371 15.3066 6.80371Z" fill="white"/>
</svg>
