<svg width="15" height="14" viewBox="0 0 15 14" fill="none" xmlns="http://www.w3.org/2000/svg">
<path fill-rule="evenodd" clip-rule="evenodd" d="M12.3215 0C12.4858 0 12.6172 0.136085 12.6376 0.300022C12.7722 1.38189 13.6252 2.2393 14.7015 2.37462C14.8646 2.39513 15 2.52717 15 2.69238C15 2.85759 14.8646 2.98964 14.7015 3.01014C13.6252 3.14546 12.7722 4.00285 12.6376 5.08465C12.6172 5.24858 12.4858 5.38465 12.3215 5.38465C12.1571 5.38465 12.0257 5.24858 12.0053 5.08465C11.8707 4.00282 11.0177 3.14543 9.94137 3.01014C9.77829 2.98964 9.64286 2.8576 9.64286 2.69241C9.64286 2.5272 9.77823 2.39513 9.94131 2.37463C11.0177 2.23933 11.8707 1.38191 12.0053 0.300027C12.0257 0.136091 12.1571 0 12.3215 0ZM5.8928 2.15385C6.2544 2.15385 6.54343 2.45325 6.58834 2.81392C6.88445 5.19411 8.76114 7.08041 11.129 7.37804C11.4878 7.42319 11.7857 7.7137 11.7857 8.07715C11.7857 8.44061 11.4879 8.73112 11.129 8.77626C8.7612 9.0739 6.88457 10.9601 6.58834 13.34C6.54348 13.7006 6.2544 14 5.8928 14C5.5312 14 5.24217 13.7006 5.19726 13.34C4.90103 10.9601 3.0244 9.0739 0.656628 8.77626C0.29777 8.73112 0 8.44061 0 8.07715C0 7.7137 0.297828 7.42319 0.656628 7.37804C3.02451 7.08041 4.90114 5.19409 5.19726 2.81391C5.24217 2.45325 5.5312 2.15385 5.8928 2.15385Z" fill="url(#paint0_linear_247_1027)"/>
<defs>
<linearGradient id="paint0_linear_247_1027" x1="-4.19847" y1="7.89437" x2="14.6312" y2="7.87356" gradientUnits="userSpaceOnUse">
<stop stop-color="#E47AFE"/>
<stop offset="0.95" stop-color="white"/>
</linearGradient>
</defs>
</svg>
