<svg width="23" height="27" viewBox="0 0 23 27" fill="none" xmlns="http://www.w3.org/2000/svg">
<path d="M11.335 0C13.7166 0 16.0015 0.945815 17.6855 2.62988C19.3695 4.31384 20.3153 6.59804 20.3154 8.97949V10.1992C20.7841 10.3876 21.2151 10.6692 21.5791 11.0332C22.2881 11.7423 22.6865 12.7043 22.6865 13.707V23.1592C22.6865 23.6557 22.5885 24.1477 22.3984 24.6064C22.2085 25.0651 21.9301 25.482 21.5791 25.833C21.2281 26.184 20.8111 26.4623 20.3525 26.6523C19.8938 26.8423 19.4018 26.9404 18.9053 26.9404H3.78125C3.28472 26.9404 2.79272 26.8424 2.33398 26.6523C1.87532 26.4623 1.45847 26.1841 1.10742 25.833C0.756371 25.482 0.478099 25.0651 0.288086 24.6064C0.0980714 24.1477 -3.63671e-09 23.6557 0 23.1592V13.707C0 12.7042 0.398341 11.7423 1.10742 11.0332C1.46747 10.6732 1.89279 10.3934 2.35547 10.2051V8.97949C2.35559 6.59803 3.30139 4.31384 4.98535 2.62988C6.66931 0.945923 8.9535 0.000120971 11.335 0ZM11.3359 15.1279C11.1497 15.1279 10.965 15.1651 10.793 15.2363C10.6211 15.3076 10.4646 15.4114 10.333 15.543C10.2014 15.6745 10.0976 15.8311 10.0264 16.0029C9.95511 16.175 9.91797 16.3597 9.91797 16.5459V20.3271C9.91805 20.7029 10.0674 21.0633 10.333 21.3291C10.5989 21.595 10.9599 21.7451 11.3359 21.7451C11.712 21.7451 12.073 21.595 12.3389 21.3291C12.6045 21.0633 12.7538 20.7029 12.7539 20.3271V16.5459C12.7539 16.3597 12.7168 16.175 12.6455 16.0029C12.5743 15.8311 12.4704 15.6745 12.3389 15.543C12.2073 15.4114 12.0507 15.3076 11.8789 15.2363C11.7069 15.1651 11.5221 15.1279 11.3359 15.1279ZM11.335 2.83594C9.70559 2.83606 8.14336 3.48359 6.99121 4.63574C5.83906 5.78789 5.19153 7.35012 5.19141 8.97949V9.92578H17.4795V8.97949C17.4794 7.35014 16.8318 5.78789 15.6797 4.63574C14.5274 3.48349 12.9645 2.83594 11.335 2.83594Z" fill="white"/>
</svg>
