<svg width="23" height="31" viewBox="0 0 23 31" fill="none" xmlns="http://www.w3.org/2000/svg">
<path opacity="0.9" d="M11.3433 0C14.845 0 17.6837 3.00282 17.6837 6.70698V13.414C17.6837 17.1181 14.845 20.121 11.3433 20.121C7.84145 20.121 5.00273 17.1181 5.00273 13.414V6.70698C5.00273 3.00282 7.84145 0 11.3433 0ZM0 14.7554H2.55643C3.17175 19.3058 6.8713 22.8037 11.3433 22.8037C15.8151 22.8037 19.5146 19.3058 20.13 14.7554H22.6864C22.1017 20.3511 17.9013 24.7942 12.6114 25.4129L12.6114 30.2485H10.0752L10.0752 25.4129C4.7851 24.7942 0.584782 20.3511 0 14.7554Z" fill="white"/>
</svg>
